<?xml version="1.0" encoding="UTF-8" standalone="no"?>
<!-- Generator: Adobe Illustrator 19.0.0, SVG Export Plug-In . SVG Version: 6.00 Build 0)  -->

<svg
   xmlns:dc="http://purl.org/dc/elements/1.1/"
   xmlns:cc="http://creativecommons.org/ns#"
   xmlns:rdf="http://www.w3.org/1999/02/22-rdf-syntax-ns#"
   xmlns:svg="http://www.w3.org/2000/svg"
   xmlns="http://www.w3.org/2000/svg"
   xmlns:xlink="http://www.w3.org/1999/xlink"
   xmlns:sodipodi="http://sodipodi.sourceforge.net/DTD/sodipodi-0.dtd"
   xmlns:inkscape="http://www.inkscape.org/namespaces/inkscape"
   version="1.1"
   id="Capa_1"
   x="0px"
   y="0px"
   viewBox="0 0 511.997 511.997"
   style="enable-background:new 0 0 511.997 511.997;"
   xml:space="preserve"
   sodipodi:docname="shopping-cart.svg"
   inkscape:version="0.92.4 (5da689c313, 2019-01-14)"><metadata
   id="metadata923"><rdf:RDF><cc:Work
       rdf:about=""><dc:format>image/svg+xml</dc:format><dc:type
         rdf:resource="http://purl.org/dc/dcmitype/StillImage" /></cc:Work></rdf:RDF></metadata><defs
   id="defs921"><linearGradient
     inkscape:collect="always"
     id="linearGradient1450"><stop
       style="stop-color:#121817;stop-opacity:1;"
       offset="0"
       id="stop1446" /><stop
       style="stop-color:#121817;stop-opacity:0;"
       offset="1"
       id="stop1448" /></linearGradient><linearGradient
     inkscape:collect="always"
     xlink:href="#linearGradient1450"
     id="linearGradient1452"
     x1="109.806"
     y1="426.452"
     x2="436.78603"
     y2="426.452"
     gradientUnits="userSpaceOnUse" /></defs><sodipodi:namedview
   pagecolor="#ffffff"
   bordercolor="#666666"
   borderopacity="1"
   objecttolerance="10"
   gridtolerance="10"
   guidetolerance="10"
   inkscape:pageopacity="0"
   inkscape:pageshadow="2"
   inkscape:window-width="1920"
   inkscape:window-height="1017"
   id="namedview919"
   showgrid="false"
   inkscape:zoom="0.83008295"
   inkscape:cx="26.839858"
   inkscape:cy="312.46345"
   inkscape:window-x="-8"
   inkscape:window-y="-8"
   inkscape:window-maximized="1"
   inkscape:current-layer="Capa_1" />
<g
   id="g874"
   style="fill:#121817;fill-opacity:1">
	<g
   id="g872"
   style="fill:#121817;fill-opacity:1">
		<path
   d="M405.387,362.612c-35.202,0-63.84,28.639-63.84,63.84s28.639,63.84,63.84,63.84s63.84-28.639,63.84-63.84    S440.588,362.612,405.387,362.612z M405.387,451.988c-14.083,0-25.536-11.453-25.536-25.536s11.453-25.536,25.536-25.536    c14.083,0,25.536,11.453,25.536,25.536S419.47,451.988,405.387,451.988z"
   id="path870"
   style="fill:#121817;fill-opacity:1" />
	</g>
</g>
<g
   id="g880"
   style="fill:#121817;fill-opacity:1">
	<g
   id="g878"
   style="fill:#121817;fill-opacity:1">
		<path
   d="M507.927,115.875c-3.626-4.641-9.187-7.348-15.079-7.348H118.22l-17.237-72.12c-2.062-8.618-9.768-14.702-18.629-14.702    H19.152C8.574,21.704,0,30.278,0,40.856s8.574,19.152,19.152,19.152h48.085l62.244,260.443    c2.062,8.625,9.768,14.702,18.629,14.702h298.135c8.804,0,16.477-6.001,18.59-14.543l46.604-188.329    C512.849,126.562,511.553,120.516,507.927,115.875z M431.261,296.85H163.227l-35.853-150.019h341.003L431.261,296.85z"
   id="path876"
   style="fill:#121817;fill-opacity:1" />
	</g>
</g>
<g
   id="g886"
   style="fill:#121817;stroke:none;stroke-opacity:1;fill-opacity:1">
	<g
   id="g884"
   style="fill:#121817;stroke:none;stroke-opacity:1;fill-opacity:1">
		<path
   d="M173.646,362.612c-35.202,0-63.84,28.639-63.84,63.84s28.639,63.84,63.84,63.84s63.84-28.639,63.84-63.84    S208.847,362.612,173.646,362.612z M173.646,451.988c-14.083,0-25.536-11.453-25.536-25.536s11.453-25.536,25.536-25.536    s25.536,11.453,25.536,25.536S187.729,451.988,173.646,451.988z"
   id="path882"
   style="fill:#121817;stroke:none;stroke-opacity:1;fill-opacity:1" />
	</g>
<ellipse
   style="fill:#121817;fill-opacity:1;stroke:none;stroke-width:3.77952766;stroke-miterlimit:4;stroke-dasharray:none;stroke-opacity:1"
   id="path955"
   cx="172.5731"
   cy="426.46338"
   rx="28.611597"
   ry="31.924519" /><ellipse
   style="fill:#121817;fill-opacity:1;stroke:none;stroke-width:3.77952766;stroke-miterlimit:4;stroke-dasharray:none;stroke-opacity:1"
   id="path961"
   cx="403.87527"
   cy="428.27045"
   rx="31.020996"
   ry="27.708073" /></g>
<g
   id="g888"
   style="fill:#121817;fill-opacity:1">
</g>
<g
   id="g890"
   style="fill:#121817;fill-opacity:1">
</g>
<g
   id="g892"
   style="fill:#121817;fill-opacity:1">
</g>
<g
   id="g894"
   style="fill:#121817;fill-opacity:1">
</g>
<g
   id="g896"
   style="fill:#121817;fill-opacity:1">
</g>
<g
   id="g898"
   style="fill:#121817;fill-opacity:1">
</g>
<g
   id="g900"
   style="fill:#121817;fill-opacity:1">
</g>
<g
   id="g902"
   style="fill:#121817;fill-opacity:1">
</g>
<g
   id="g904"
   style="fill:#121817;fill-opacity:1">
</g>
<g
   id="g906"
   style="fill:#121817;fill-opacity:1">
</g>
<g
   id="g908"
   style="fill:#121817;fill-opacity:1">
</g>
<g
   id="g910"
   style="fill:#121817;fill-opacity:1">
</g>
<g
   id="g912"
   style="fill:#121817;fill-opacity:1">
</g>
<g
   id="g914"
   style="fill:#121817;fill-opacity:1">
</g>
<g
   id="g916"
   style="fill:#121817;fill-opacity:1">
</g>
</svg>