<svg xmlns="http://www.w3.org/2000/svg" viewBox="0 0 752 274"><defs><style>.cls-1{fill:#fff;}</style></defs><title>Fichier 2</title><g id="Calque_2" data-name="Calque 2"><g id="Calque_2-2" data-name="Calque 2"><polygon class="cls-1" points="752 30 752 6 686 6 662 6 662 30 662 80 662 104 662 195 686 195 686 104 747 104 747 80 686 80 686 30 752 30"/><path class="cls-1" d="M566,139c0-28.56-24-56-49-56H464v24h53c13,0,22,18,22,32,0,17.55-14.71,32-32,33H482.29l65.63,97H576l-51.39-75.94A56,56,0,0,0,566,139Z"/><path class="cls-1" d="M306,131s-8.5,41-45,41-45-41-45-41V0H192V131s2.5,62,69,62,69-62,69-62V0H306Z"/><path class="cls-1" d="M61,150s-24-1-24-23,24-24,24-24V79S11,79,5,127c-2,35,56,52,56,52,37,10,30,36,30,36s-2,30-30,30-30-31.47-30-31.47L0,218c1,48,49,56,61,56s62-8,62-59S61,150,61,150Z"/></g></g></svg>